<svg xmlns="http://www.w3.org/2000/svg" width="18.167" height="18.167" viewBox="0 0 18.167 18.167">
  <g>
    <path fill="none" stroke-dasharray="0 0 0 0" stroke-linecap="round" stroke-linejoin="round" stroke-width="1.5" d="M13.25.75H4.91666667C2.61548333.75.75 2.61548333.75 4.91666667V13.25c0 2.30116667 1.86548333 4.16666667 4.16666667 4.16666667H13.25c2.30116667 0 4.16666667-1.8655 4.16666667-4.16666667V4.91666667C17.41666667 2.61548333 15.55116667.75 13.25.75h0z"/>
    <path fill="none" stroke-dasharray="0 0 0 0" stroke-linecap="round" stroke-linejoin="round" stroke-width="1.5" d="M12.41641667 8.55816667c.10283333.69358333-.01558334 1.40183333-.3385 2.02416666-.32291667.62233334-.83383334 1.127-1.46016667 1.44225-.62625.31516667-1.33591667.42491667-2.02816667.3135-.69225-.11133333-1.33169166-.43816666-1.82745833-.93391666-.495775-.49575-.82259167-1.13525-.93398333-1.8275C5.71675833 8.8845 5.826475 8.17475 6.14169167 7.5485c.31521666-.626275.81988333-1.13720833 1.442225-1.460125C8.20625 5.76546667 8.91458333 5.647 9.60808333 5.74984167 10.3155 5.85475 10.9705 6.1844 11.47616667 6.6901c.50566666.5057.83533333 1.16065.94025 1.86806667h0z"/>
    <path fill="none" stroke-dasharray="0 0 0 0" stroke-linecap="round" stroke-linejoin="round" stroke-width="2" d="M13.66666667 4.5H13.5"/>
  </g>
</svg>
