<svg xmlns="http://www.w3.org/2000/svg" width="20" height="17.582" viewBox="0 0 20 17.582">
  <path fill-rule="evenodd" d="M20 .08236667c-.798.5629-1.68158333.993425-2.61666667 1.275C16.88141667.78029167 16.21441667.371275 15.4725.18564167 14.73058333 0 13.94958333.0467 13.23508333.31941667 12.52058333.592125 11.907 1.0777 11.4775 1.71046667c-.42958333.63275833-.65441667 1.38218333-.64416667 2.1469V4.6907c-1.4645.037975-2.91560833-.286825-4.22415833-.94545833C5.30061667 3.0866 4.17526667 2.11456667 3.33333333.9157 3.33333333.9157 0 8.4157 7.5 11.74903333c-1.716225 1.165-3.7607 1.74908334-5.83333333 1.66666667 7.5 4.16666667 16.66666666 0 16.66666666-9.58333333C18.33258333 3.60025 18.31025 3.3687 18.26666667 3.1407 19.11716667 2.30195 19.71733333 1.24295833 20 .08236667z"/>
</svg>
