<svg xmlns="http://www.w3.org/2000/svg" xmlns:xlink="http://www.w3.org/1999/xlink" width="20" height="20" viewBox="0 0 20 20">
  <defs>
    <rect id="rect-1" width="20" height="20" x="0" y="0"/>
    <mask id="mask-2" maskContentUnits="userSpaceOnUse" maskUnits="userSpaceOnUse">
      <rect width="20" height="20" x="0" y="0" fill="black"/>
      <use fill="white" xlink:href="#rect-1"/>
    </mask>
  </defs>
  <g>
    <use fill="none" xlink:href="#rect-1"/>
    <g mask="url(#mask-2)">
      <path fill="rgb(25,52,80)" fill-rule="evenodd" d="M19.16666667 2.49983333c-.798.5629-1.68158334.993425-2.61666667 1.275-.50191667-.577075-1.16891667-.98609166-1.91083333-1.171725-.74191667-.18564166-1.52291667-.13894166-2.23741667.133775-.7145.27270834-1.32808333.75828334-1.75758333 1.39105C10.21458333 4.76069167 9.98975 5.51011667 10 6.27483333v.83333334c-1.4645.037975-2.91560833-.286825-4.22415833-.94545834C4.46728333 5.50406667 3.34193333 4.53203333 2.5 3.33316667c0 0-3.33333333 7.5 4.16666667 10.83333333-1.716225 1.165-3.7607 1.74908333-5.83333334 1.66666667 7.5 4.16666666 16.66666667 0 16.66666667-9.58333334-.00075-.23211666-.02308333-.46366666-.06666667-.69166666.8505-.83875 1.45066667-1.89774167 1.73333334-3.05833334z"/>
    </g>
  </g>
</svg>
